<svg aria-hidden="true" style="position:absolute;width:0;height:0" xmlns="http://www.w3.org/2000/svg" overflow="hidden"><defs><symbol id="icon-cake" viewBox="0 0 27 32"><path fill="var(--color1, #eda42d)" d="M27.077 16c0 2.225-1.329 4.147-3.242 5.028l-1.865 7.82A4.108 4.108 0 0117.951 32H9.125a4.108 4.108 0 01-4.019-3.152l-1.865-7.82C1.329 20.147-.001 18.225-.001 16c0-1.398.527-2.733 1.484-3.759a5.59 5.59 0 012.786-1.625c.276-2.636 2.529-4.698 5.259-4.698.16 0 .319.008.478.022a3.865 3.865 0 012.652-2.185c.068-.47.194-1.001.422-1.518.496-1.124 1.347-1.885 2.461-2.201.502-.142 1.025.146 1.169.644s-.147 1.017-.649 1.159c-.479.136-1.24.571-1.498 1.953a3.865 3.865 0 012.519 2.176c.236-.032.474-.049.714-.049 2.753 0 5.022 2.098 5.265 4.766 2.337.681 4.014 2.839 4.014 5.316zM13.538 5.529c-1.086 0-1.969.876-1.969 1.952s.883 1.952 1.969 1.952 1.969-.876 1.969-1.952-.883-1.952-1.969-1.952zM5.305 21.533l1.642 6.883a2.227 2.227 0 002.178 1.709h.068l-2.096-8.79a5.655 5.655 0 01-1.792.198zm9.171 8.592h1.465l2.296-9.626a5.648 5.648 0 01-.764-.652 5.637 5.637 0 01-2.997 1.599v8.679zm-3.34 0h1.448v-8.652a5.562 5.562 0 01-3.064-1.537 5.562 5.562 0 01-.679.569l2.294 9.62zm8.994-1.709l1.642-6.883a5.592 5.592 0 01-1.791-.201l-2.097 8.793h.068a2.226 2.226 0 002.178-1.709zm-1.839-10.582a3.717 3.717 0 003.199 1.831c2.038 0 3.696-1.644 3.696-3.665 0-1.821-1.37-3.381-3.187-3.629a.94.94 0 01-.815-.989c.006-.087.008-.157.008-.221 0-1.857-1.523-3.368-3.396-3.368-.139 0-.278.009-.415.025-.173 1.953-1.83 3.49-3.844 3.49-2.02 0-3.682-1.547-3.845-3.51a3.03 3.03 0 00-.165-.005c-1.873 0-3.396 1.511-3.396 3.368 0 .059.002.125.007.199a.94.94 0 01-.865.989 3.697 3.697 0 00-2.402 1.165A3.631 3.631 0 001.89 16c0 2.021 1.658 3.665 3.696 3.665a3.717 3.717 0 001.783-.452 3.694 3.694 0 001.35-1.269c.173-.273.475-.439.801-.439s.628.166.801.439a3.687 3.687 0 003.133 1.722 3.717 3.717 0 003.199-1.831.947.947 0 011.636 0z"/></symbol><symbol id="icon-dish" viewBox="0 0 32 32"><path fill="var(--color2, #5dc4b8)" d="M32 14.062a.937.937 0 00-.937-.937h-2.848c-.457-5.974-5.24-10.757-11.214-11.213V.938a.937.937 0 10-1.875 0v.97c-4.24.285-6.876 2.47-8.368 4.324-1.569 1.949-2.612 4.515-2.836 6.892H.939a.938.938 0 00-.938.937c0 1.253.515 2.435 1.45 3.329a4.848 4.848 0 003.362 1.358h4.709c-.828.427-1.742.934-2.752 1.523-1.544.901-2.075 2.174-2.69 3.648-.418 1.003-.892 2.139-1.793 3.489-.469.704.108 1.325.643 1.83.685.646 1.859 1.594 2.601 2.157l.057.043.044.034.002.002c.397.303.686.524 1.054.524a.945.945 0 00.662-.276c1.097-1.096 2.505-1.725 3.864-1.725h3.896a6.57 6.57 0 004.876-2.17l7.484-8.235a.933.933 0 00.214-.86A4.693 4.693 0 0032 14.061zM16.064 3.751c5.369 0 9.792 4.126 10.268 9.374H5.803c.445-4.085 3.738-9.374 10.261-9.374zm5.235 14.998l-3.75 3.75h-3.217c1.466-.917 2.6-1.872 2.695-3.062a1.946 1.946 0 00-.068-.687h4.34zm-1.316 6.295l-1.388 1.527a4.694 4.694 0 01-3.485 1.552h-3.896c-1.612 0-3.253.627-4.604 1.742-.688-.526-1.82-1.448-2.397-1.988.771-1.256 1.223-2.341 1.596-3.235.564-1.351.904-2.167 1.905-2.751 1.742-1.016 3.152-1.757 4.311-2.266 2.109-.926 2.731-.779 2.803-.756.235.191.335.347.329.418-.003.035-.053.362-.931 1.021-.695.521-1.646 1.06-2.602 1.602-.423.24-.848.48-1.251.72a.937.937 0 00.479 1.743h7.086a.937.937 0 00.663-.275l4.474-4.474c.852-.852 1.558-1.04 2.346-.564l-5.437 5.983zm-15.17-8.17a2.991 2.991 0 01-2.763-1.887h27.915a2.83 2.83 0 01-2.652 1.887h-22.5z"/></symbol><symbol id="icon-glass" viewBox="0 0 30 32"><path fill="var(--color3, #ef633e)" d="M17.473 5.333C17.857 2.288 20.429.005 23.48 0c3.346 0 6.059 2.729 6.059 6.095s-2.713 6.095-6.059 6.095a5.965 5.965 0 01-3.442-1.091l-7.161 8.034v11.342h4.544v1.524H6.818v-1.524h4.544V19.133L.194 6.603a.764.764 0 01.564-1.271h16.715zM5.817 10.631l6.301 7.07 6.3-7.07H5.817zm13.876-1.434l2.089-2.34H2.455l2.005 2.25h15.233v.09zm1.363.761c.724.464 1.565.71 2.424.709a4.551 4.551 0 004.48-3.809c.418-2.489-1.249-4.849-3.723-5.269s-4.82 1.256-5.238 3.746h4.481a.754.754 0 01.51.196.765.765 0 01.055 1.076l-2.989 3.352z"/></symbol><symbol id="icon-grapes" viewBox="0 0 26 32"><path fill="var(--color3, #ef633e)" d="M23.069 10.378a3.402 3.402 0 013.392 3.405 3.405 3.405 0 01-2.855 3.361 3.405 3.405 0 01-2.464 4.933 3.405 3.405 0 01-2.453 4.943 3.402 3.402 0 01-3.006 4.979c-.967 0-1.84-.409-2.458-1.062a3.378 3.378 0 01-2.458 1.062 3.401 3.401 0 01-3.006-4.979 3.405 3.405 0 01-2.453-4.943 3.406 3.406 0 01-2.463-4.935 3.405 3.405 0 01-2.844-3.359 3.403 3.403 0 013.392-3.405c.97 0 1.845.411 2.464 1.068a3.376 3.376 0 014.922-.006 3.39 3.39 0 011.512-.926V8.162a2.971 2.971 0 01-3.195-.66C7.392 5.792 6.433 2.07 6.329 1.651L5.954.139l1.507.376c.348.087 2.992.773 4.847 1.993A2.81 2.81 0 0115.094 0h4.369v1.875h-4.369a.937.937 0 00-.934.938v7.695a3.399 3.399 0 011.536.933 3.376 3.376 0 014.916 0 3.378 3.378 0 012.458-1.062zM11.701 23.662c0 .843.684 1.53 1.524 1.53s1.524-.686 1.524-1.53c0-.843-.684-1.53-1.524-1.53s-1.524.686-1.524 1.53zm-.934-6.475a1.53 1.53 0 000 3.059c.84 0 1.524-.686 1.524-1.53s-.684-1.529-1.524-1.529zm3.392 1.53c0 .843.684 1.53 1.524 1.53s1.524-.686 1.524-1.53-.684-1.529-1.524-1.529-1.524.686-1.524 1.529zm3.994-6.464c-.84 0-1.524.686-1.524 1.53s.684 1.529 1.524 1.529 1.524-.686 1.524-1.529-.684-1.53-1.524-1.53zm-7.737-6.077c.428.43 1.125.429 1.553 0s.428-1.129 0-1.558c-.725-.727-2.137-1.354-3.323-1.778.422 1.192 1.048 2.61 1.771 3.336zm2.821 6.077c-.84 0-1.524.686-1.524 1.53s.684 1.529 1.524 1.529 1.524-.686 1.524-1.529-.684-1.53-1.524-1.53zm-3.392 1.53c0-.843-.684-1.53-1.524-1.53s-1.524.686-1.524 1.53.684 1.529 1.524 1.529 1.524-.686 1.524-1.529zm-7.977 0c0 .843.684 1.529 1.524 1.529s1.524-.686 1.524-1.529c0-.843-.684-1.53-1.524-1.53s-1.524.686-1.524 1.53zm3.982 3.404a1.53 1.53 0 000 3.059c.84 0 1.524-.686 1.524-1.53s-.684-1.529-1.524-1.529zm.934 6.475c0 .843.684 1.53 1.524 1.53s1.524-.686 1.524-1.53c0-.843-.684-1.53-1.524-1.53s-1.524.686-1.524 1.53zm2.459 4.934c0 .843.684 1.529 1.524 1.529a1.529 1.529 0 000-3.058c-.84 0-1.524.686-1.524 1.529zm6.44 1.529a1.529 1.529 0 000-3.058 1.529 1.529 0 000 3.058zm.934-6.463c0 .843.684 1.53 1.524 1.53s1.524-.686 1.524-1.53c0-.843-.684-1.53-1.524-1.53s-1.524.686-1.524 1.53zm3.982-3.416c.84 0 1.524-.686 1.524-1.53s-.684-1.529-1.524-1.529-1.524.686-1.524 1.529.684 1.53 1.524 1.53zm.946-6.463c0 .843.684 1.529 1.524 1.529s1.524-.686 1.524-1.529-.684-1.53-1.524-1.53-1.524.686-1.524 1.53z"/></symbol></defs></svg>