<svg aria-hidden="true" style="position:absolute;width:0;height:0" xmlns="http://www.w3.org/2000/svg" overflow="hidden"><defs><symbol id="icon-facebook" viewBox="0 0 20 32"><path fill="var(--color1, #fff)" d="M5.333 10.667H0V16h5.333v16h8V16h4.853l.48-5.333h-5.333V8.446c0-1.275.256-1.779 1.488-1.779h3.845V0h-6.411C7.46 0 5.332 2.112 5.332 6.155v4.512z"/></symbol><symbol id="icon-instagram" viewBox="0 0 32 32"><path fill="var(--color1, #fff)" d="M16 0c-4.347 0-4.888.019-6.597.099C3.59.366.363 3.59.096 9.403.019 11.112 0 11.656 0 16c0 4.347.019 4.891.096 6.597.267 5.811 3.493 9.04 9.307 9.307 1.709.077 2.251.096 6.597.096s4.891-.019 6.6-.096c5.803-.267 9.043-3.491 9.304-9.307C31.981 20.89 32 20.346 32 16c0-4.344-.019-4.888-.096-6.597C31.643 3.598 28.413.363 22.6.099 20.891.019 20.347 0 16 0zm0 2.885c4.272 0 4.779.016 6.467.093 4.339.197 6.36 2.253 6.56 6.557.075 1.688.091 2.192.091 6.464s-.016 4.779-.091 6.464c-.2 4.301-2.219 6.363-6.56 6.56-1.688.075-2.192.093-6.467.093-4.272 0-4.779-.016-6.464-.093-4.347-.2-6.36-2.264-6.56-6.56-.075-1.685-.093-2.192-.093-6.464s.019-4.779.093-6.464c.197-4.307 2.219-6.363 6.56-6.56 1.685-.077 2.192-.091 6.464-.091zM7.784 16a8.216 8.216 0 1016.432 0 8.216 8.216 0 00-16.432 0zM16 21.333a5.333 5.333 0 010-10.666c2.944 0 5.336 2.387 5.336 5.333S18.944 21.333 16 21.333zm6.619-13.872a1.92 1.92 0 011.92-1.92 1.92 1.92 0 110 3.84 1.92 1.92 0 01-1.92-1.92z"/></symbol><symbol id="icon-twitter" viewBox="0 0 37 32"><path fill="var(--color1, #fff)" d="M36.571 3.52c-1.344.597-2.792 1-4.309 1.182A7.535 7.535 0 0035.563.551a15.02 15.02 0 01-4.767 1.819 7.48 7.48 0 00-5.473-2.371c-4.846 0-8.405 4.52-7.311 9.213C11.78 8.898 6.248 5.911 2.548 1.374A7.514 7.514 0 004.87 11.392a7.493 7.493 0 01-3.395-.939c-.082 3.474 2.411 6.726 6.019 7.451a7.506 7.506 0 01-3.389.128 7.512 7.512 0 007.01 5.208A15.1 15.1 0 010 26.352a21.223 21.223 0 0011.499 3.371c13.934 0 21.803-11.767 21.327-22.321a15.118 15.118 0 003.746-3.883z"/></symbol></defs></svg>