<svg aria-hidden="true" style="position:absolute;width:0;height:0" xmlns="http://www.w3.org/2000/svg" overflow="hidden"><defs><symbol id="icon-apple" viewBox="0 0 28 32"><path fill="var(--color1, #ef633e)" d="M21.986 7.89c2.745.694 4.74 2.659 5.473 5.391.616 2.297.711 5.088.26 7.655-.505 2.877-1.626 5.592-3.156 7.645C22.92 30.786 20.961 32 19.046 32a4.53 4.53 0 01-2.189-.561c-.884-.48-1.873-.734-2.857-.734s-1.973.254-2.857.735a4.542 4.542 0 01-2.189.561c-1.915 0-3.874-1.214-5.516-3.418C1.908 26.53.787 23.815.282 20.939c-.468-2.664-.349-5.54.328-7.891.766-2.659 2.84-4.64 5.549-5.299 2.525-.614 5.061.033 6.619 1.689.093.099.198.185.31.258.055-.764.213-1.5.458-2.194h-3.284c-3.606 0-6.539-2.943-6.539-6.562 0-.518.418-.938.934-.938h3.737c3.139 0 5.769 2.232 6.397 5.198a8.39 8.39 0 016.682-3.323c.516 0 .934.42.934.938s-.418.938-.934.938c-3.385 0-6.178 2.595-6.507 5.907.091-.064.176-.138.254-.22 1.48-1.574 4.199-2.196 6.766-1.547zM10.263 5.625h2.709c-.434-2.137-2.321-3.75-4.577-3.75H5.686c.434 2.137 2.321 3.75 4.577 3.75zm12.803 21.834c1.358-1.823 2.357-4.254 2.812-6.848.4-2.273.316-4.831-.224-6.842-.756-2.817-2.909-3.753-4.125-4.06-1.9-.48-3.936-.063-4.95 1.016a3.553 3.553 0 01-2.578 1.114h-.002a3.558 3.558 0 01-2.579-1.115c-1.082-1.15-2.974-1.603-4.821-1.154-2.08.506-3.609 1.963-4.195 3.997-.592 2.055-.698 4.688-.283 7.045.455 2.593 1.454 5.025 2.812 6.847 1.263 1.695 2.728 2.666 4.02 2.666a2.7 2.7 0 001.3-.335c1.156-.628 2.452-.961 3.746-.961s2.589.332 3.748.96c.408.223.844.335 1.298.335 1.292 0 2.758-.972 4.02-2.666z"/></symbol><symbol id="icon-bike" viewBox="0 0 37 32"><path fill="var(--color2, #5dc4b8)" d="M32.67 17.97c1.574.909 3.013 2.64 3.803 5.786.508 2.021-1.027 3.976-3.118 3.976h-1.179c-.498 2.431-2.662 4.266-5.249 4.266s-4.752-1.835-5.249-4.266H10.613c-.503 2.644-2.673 4.269-5.264 4.269-2.9 0-5.349-2.34-5.349-5.336v-2.133c0-3.681 2.691-6.749 6.217-7.356l1.981-6.509h-.699A1.068 1.068 0 016.428 9.6V5.334c0-.589.48-1.067 1.071-1.067h2.143a3.21 3.21 0 013.214 3.2v1.067h3.214c.592 0 1.071.477 1.071 1.066s-.48 1.067-1.071 1.067h-2.146a5.29 5.29 0 011.074 3.2v11.732h5.029a4.956 4.956 0 00-.287-6.712 1.061 1.061 0 01-.314-.754V16a3.208 3.208 0 012.37-3.087 3.169 3.169 0 01-.227-1.179V3.201c0-1.764 1.442-3.2 3.214-3.2h8.571a3.21 3.21 0 013.214 3.2v8.533c0 1.764-1.442 3.2-3.214 3.2h-.184a3.178 3.178 0 01-.501 3.038zM9.642 6.399H8.571v2.133h2.143V7.465a1.07 1.07 0 00-1.071-1.066zM6.991 29.47c.96-.464 1.58-1.565 1.58-2.806 0-1.764-1.442-3.2-3.214-3.2a3.211 3.211 0 00-3.214 3.2c0 2.274 2.369 4.004 4.849 2.806zm3.615-3.872h2.251v-1.066c0-2.941-2.403-5.333-5.357-5.333a5.365 5.365 0 00-4.704 2.783 5.36 5.36 0 017.81 3.616zm2.251-6.286v-5.446a3.21 3.21 0 00-2.447-3.108l-1.939 6.37a7.497 7.497 0 014.386 2.184zM24.785 2.133A1.07 1.07 0 0023.714 3.2v1.067h10.714V3.2a1.07 1.07 0 00-1.071-1.067h-8.571zm-1.072 4.266v5.333a1.07 1.07 0 001.071 1.067h8.571a1.07 1.07 0 001.071-1.067V6.399H23.712zm-2.143 9.6v1.067h8.571c.591 0 1.071-.478 1.071-1.067s-.481-1.066-1.071-1.066h-7.5a1.07 1.07 0 00-1.071 1.066zm5.357 13.865a3.23 3.23 0 003.03-2.147h-6.06a3.23 3.23 0 003.03 2.147zm-4.346-4.266h10.775c.698 0 1.208-.652 1.039-1.325-.857-3.414-2.594-5.074-5.308-5.074h-6.506a7.104 7.104 0 010 6.399zM5.357 27.731c.592 0 1.071-.478 1.071-1.067s-.48-1.067-1.071-1.067c-.592 0-1.071.478-1.071 1.067s.48 1.067 1.071 1.067zm21.57-6.399h2.143c.592 0 1.071.478 1.071 1.067s-.48 1.067-1.071 1.067h-2.143c-.592 0-1.071-.478-1.071-1.067s.48-1.067 1.071-1.067z"/></symbol><symbol id="icon-hat" viewBox="0 0 32 32"><path fill="var(--color3, #eda42d)" d="M22.62 3.056C21.018 1.189 18.647 0 16 0s-5.019 1.189-6.62 3.056A7.602 7.602 0 008 2.909c-4.411 0-8 3.589-8 8a7.996 7.996 0 004.381 7.129l-.014 10.991c-.001.793.308 1.539.868 2.1S6.541 32 7.334 32h17.335a2.97 2.97 0 002.967-2.967V18.028A8 8 0 0032 10.909c0-4.411-3.589-8-8-8a7.61 7.61 0 00-1.38.147zm2.049 27.49H7.334c-.404 0-.784-.158-1.07-.444s-.443-.666-.442-1.071l.004-2.849h20.357v2.851c0 .834-.679 1.513-1.513 1.513zm1.963-13.65a.707.707 0 00-.332.275.74.74 0 00-.119.414v7.143H5.826l.009-7.133a.735.735 0 00-.452-.69 6.545 6.545 0 01-3.929-5.995 6.552 6.552 0 016.545-6.545c.107 0 .218.01.329.019l.107.009a8.663 8.663 0 00-1.163 4.335.726.726 0 101.454 0c0-4.01 3.263-7.273 7.273-7.273s7.273 3.263 7.273 7.273a.726.726 0 101.454 0 8.67 8.67 0 00-1.163-4.335l.107-.009c.111-.01.222-.019.329-.019a6.552 6.552 0 016.545 6.545 6.544 6.544 0 01-3.913 5.986zM8 14.545c.402 0 .727.325.727.727 0 1.053 1.237 2.952 2.017 3.902a.728.728 0 01-1.125.923c-.24-.293-2.347-2.916-2.347-4.825 0-.402.325-.727.727-.727zm15.273.728a.726.726 0 111.454 0c0 1.91-2.107 4.532-2.347 4.825a.727.727 0 01-1.126-.922c.78-.952 2.017-2.854 2.017-3.903zM16 14.545a.726.726 0 00-.727.727v4.364a.726.726 0 101.454 0v-4.364a.726.726 0 00-.727-.727z"/></symbol></defs></svg>